solid exported
	facet normal 0.38268345145128857 0 0.9238795246055241
		outer loop
			vertex 2.2072854672891484 3.0744889205375245 1
			vertex 2.2072854672891484 2.0744889205375245 1
			vertex 2.914392236374079 3.0744889205375245 0.7071067690849304
		endloop
	endfacet
	facet normal 0.38268345145128857 0 0.9238795246055241
		outer loop
			vertex 2.2072854672891484 2.0744889205375245 1
			vertex 2.914392236374079 2.0744889205375245 0.7071067690849304
			vertex 2.914392236374079 3.0744889205375245 0.7071067690849304
		endloop
	endfacet
	facet normal 0.9238795246055241 0 0.3826834514512886
		outer loop
			vertex 2.914392236374079 3.0744889205375245 0.7071067690849304
			vertex 2.914392236374079 2.0744889205375245 0.7071067690849304
			vertex 3.2072854672891484 3.0744889205375245 6.123234262925839e-17
		endloop
	endfacet
	facet normal 0.9238795246055241 0 0.3826834514512886
		outer loop
			vertex 2.914392236374079 2.0744889205375245 0.7071067690849304
			vertex 3.2072854672891484 2.0744889205375245 6.123234262925839e-17
			vertex 3.2072854672891484 3.0744889205375245 6.123234262925839e-17
		endloop
	endfacet
	facet normal 0.9238795246055241 0 -0.3826834514512885
		outer loop
			vertex 3.2072854672891484 3.0744889205375245 6.123234262925839e-17
			vertex 3.2072854672891484 2.0744889205375245 6.123234262925839e-17
			vertex 2.914392236374079 3.0744889205375245 -0.7071067690849304
		endloop
	endfacet
	facet normal 0.9238795246055241 0 -0.3826834514512885
		outer loop
			vertex 3.2072854672891484 2.0744889205375245 6.123234262925839e-17
			vertex 2.914392236374079 2.0744889205375245 -0.7071067690849304
			vertex 2.914392236374079 3.0744889205375245 -0.7071067690849304
		endloop
	endfacet
	facet normal 0.3826834514512886 0 -0.9238795246055241
		outer loop
			vertex 2.914392236374079 3.0744889205375245 -0.7071067690849304
			vertex 2.914392236374079 2.0744889205375245 -0.7071067690849304
			vertex 2.2072854672891484 3.0744889205375245 -1
		endloop
	endfacet
	facet normal 0.3826834514512886 0 -0.9238795246055241
		outer loop
			vertex 2.914392236374079 2.0744889205375245 -0.7071067690849304
			vertex 2.2072854672891484 2.0744889205375245 -1
			vertex 2.2072854672891484 3.0744889205375245 -1
		endloop
	endfacet
	facet normal -0.3826834514512885 0 -0.9238795246055241
		outer loop
			vertex 2.2072854672891484 3.0744889205375245 -1
			vertex 2.2072854672891484 2.0744889205375245 -1
			vertex 1.500178698204218 3.0744889205375245 -0.7071067690849304
		endloop
	endfacet
	facet normal -0.3826834514512885 0 -0.9238795246055241
		outer loop
			vertex 2.2072854672891484 2.0744889205375245 -1
			vertex 1.500178698204218 2.0744889205375245 -0.7071067690849304
			vertex 1.500178698204218 3.0744889205375245 -0.7071067690849304
		endloop
	endfacet
	facet normal -0.9238795246055241 0 -0.3826834514512887
		outer loop
			vertex 1.500178698204218 3.0744889205375245 -0.7071067690849304
			vertex 1.500178698204218 2.0744889205375245 -0.7071067690849304
			vertex 1.2072854672891484 3.0744889205375245 -1.8369701465288538e-16
		endloop
	endfacet
	facet normal -0.9238795246055241 0 -0.3826834514512887
		outer loop
			vertex 1.500178698204218 2.0744889205375245 -0.7071067690849304
			vertex 1.2072854672891484 2.0744889205375245 -1.8369701465288538e-16
			vertex 1.2072854672891484 3.0744889205375245 -1.8369701465288538e-16
		endloop
	endfacet
	facet normal -0.9238795246055241 0 0.38268345145128846
		outer loop
			vertex 1.2072854672891484 3.0744889205375245 -1.8369701465288538e-16
			vertex 1.2072854672891484 2.0744889205375245 -1.8369701465288538e-16
			vertex 1.500178698204218 3.0744889205375245 0.7071067690849304
		endloop
	endfacet
	facet normal -0.9238795246055241 0 0.38268345145128846
		outer loop
			vertex 1.2072854672891484 2.0744889205375245 -1.8369701465288538e-16
			vertex 1.500178698204218 2.0744889205375245 0.7071067690849304
			vertex 1.500178698204218 3.0744889205375245 0.7071067690849304
		endloop
	endfacet
	facet normal -0.3826834514512887 0 0.9238795246055241
		outer loop
			vertex 1.500178698204218 3.0744889205375245 0.7071067690849304
			vertex 1.500178698204218 2.0744889205375245 0.7071067690849304
			vertex 2.207285467289148 3.0744889205375245 1
		endloop
	endfacet
	facet normal -0.3826834514512887 0 0.9238795246055241
		outer loop
			vertex 1.500178698204218 2.0744889205375245 0.7071067690849304
			vertex 2.207285467289148 2.0744889205375245 1
			vertex 2.207285467289148 3.0744889205375245 1
		endloop
	endfacet
	facet normal 0 1 0
		outer loop
			vertex 2.2072854672891484 3.0744889205375245 1
			vertex 2.914392236374079 3.0744889205375245 0.7071067690849304
			vertex 2.2072854672891484 3.0744889205375245 0
		endloop
	endfacet
	facet normal 0 1 0
		outer loop
			vertex 2.914392236374079 3.0744889205375245 0.7071067690849304
			vertex 3.2072854672891484 3.0744889205375245 6.123234262925839e-17
			vertex 2.2072854672891484 3.0744889205375245 0
		endloop
	endfacet
	facet normal 0 1 0
		outer loop
			vertex 3.2072854672891484 3.0744889205375245 6.123234262925839e-17
			vertex 2.914392236374079 3.0744889205375245 -0.7071067690849304
			vertex 2.2072854672891484 3.0744889205375245 0
		endloop
	endfacet
	facet normal 0 1 0
		outer loop
			vertex 2.914392236374079 3.0744889205375245 -0.7071067690849304
			vertex 2.2072854672891484 3.0744889205375245 -1
			vertex 2.2072854672891484 3.0744889205375245 0
		endloop
	endfacet
	facet normal 0 1 0
		outer loop
			vertex 2.2072854672891484 3.0744889205375245 -1
			vertex 1.500178698204218 3.0744889205375245 -0.7071067690849304
			vertex 2.2072854672891484 3.0744889205375245 0
		endloop
	endfacet
	facet normal 0 1 0
		outer loop
			vertex 1.500178698204218 3.0744889205375245 -0.7071067690849304
			vertex 1.2072854672891484 3.0744889205375245 -1.8369701465288538e-16
			vertex 2.2072854672891484 3.0744889205375245 0
		endloop
	endfacet
	facet normal 0 1 0
		outer loop
			vertex 1.2072854672891484 3.0744889205375245 -1.8369701465288538e-16
			vertex 1.500178698204218 3.0744889205375245 0.7071067690849304
			vertex 2.2072854672891484 3.0744889205375245 0
		endloop
	endfacet
	facet normal 0 1 0
		outer loop
			vertex 1.500178698204218 3.0744889205375245 0.7071067690849304
			vertex 2.207285467289148 3.0744889205375245 1
			vertex 2.2072854672891484 3.0744889205375245 0
		endloop
	endfacet
	facet normal 0 -1 0
		outer loop
			vertex 2.914392236374079 2.0744889205375245 0.7071067690849304
			vertex 2.2072854672891484 2.0744889205375245 1
			vertex 2.2072854672891484 2.0744889205375245 0
		endloop
	endfacet
	facet normal 0 -1 0
		outer loop
			vertex 3.2072854672891484 2.0744889205375245 6.123234262925839e-17
			vertex 2.914392236374079 2.0744889205375245 0.7071067690849304
			vertex 2.2072854672891484 2.0744889205375245 0
		endloop
	endfacet
	facet normal 0 -1 0
		outer loop
			vertex 2.914392236374079 2.0744889205375245 -0.7071067690849304
			vertex 3.2072854672891484 2.0744889205375245 6.123234262925839e-17
			vertex 2.2072854672891484 2.0744889205375245 0
		endloop
	endfacet
	facet normal 0 -1 0
		outer loop
			vertex 2.2072854672891484 2.0744889205375245 -1
			vertex 2.914392236374079 2.0744889205375245 -0.7071067690849304
			vertex 2.2072854672891484 2.0744889205375245 0
		endloop
	endfacet
	facet normal 0 -1 0
		outer loop
			vertex 1.500178698204218 2.0744889205375245 -0.7071067690849304
			vertex 2.2072854672891484 2.0744889205375245 -1
			vertex 2.2072854672891484 2.0744889205375245 0
		endloop
	endfacet
	facet normal 0 -1 0
		outer loop
			vertex 1.2072854672891484 2.0744889205375245 -1.8369701465288538e-16
			vertex 1.500178698204218 2.0744889205375245 -0.7071067690849304
			vertex 2.2072854672891484 2.0744889205375245 0
		endloop
	endfacet
	facet normal 0 -1 0
		outer loop
			vertex 1.500178698204218 2.0744889205375245 0.7071067690849304
			vertex 1.2072854672891484 2.0744889205375245 -1.8369701465288538e-16
			vertex 2.2072854672891484 2.0744889205375245 0
		endloop
	endfacet
	facet normal 0 -1 0
		outer loop
			vertex 2.207285467289148 2.0744889205375245 1
			vertex 1.500178698204218 2.0744889205375245 0.7071067690849304
			vertex 2.2072854672891484 2.0744889205375245 0
		endloop
	endfacet
endsolid exported
